<?xml version="1.0" encoding="iso-8859-1"?>
<!-- Generator: Adobe Illustrator 19.0.0, SVG Export Plug-In . SVG Version: 6.00 Build 0)  -->
<svg version="1.1" id="Layer_1" xmlns="http://www.w3.org/2000/svg" xmlns:xlink="http://www.w3.org/1999/xlink" x="0px" y="0px"
	 viewBox="0 0 511.984 511.984" style="enable-background:new 0 0 511.984 511.984;" xml:space="preserve">
<g>
	<path style="fill:#FFCE54;" d="M373.332,159.964c-5.891,0-10.672-4.766-10.672-10.656V95.965c0-5.89,4.781-10.656,10.672-10.656
		s10.656,4.766,10.656,10.656v53.342C383.988,155.198,379.222,159.964,373.332,159.964z"/>
	<path style="fill:#FFCE54;" d="M394.66,127.965h-42.671c-5.875,0-10.656-4.766-10.656-10.656c0-5.906,4.781-10.672,10.656-10.672
		h42.671c5.891,0,10.671,4.766,10.671,10.672C405.331,123.199,400.551,127.965,394.66,127.965z"/>
</g>
<path style="fill:#DA4453;" d="M202.665,149.307h-31.999v-31.999c0-5.891-4.765-10.672-10.671-10.672H117.34
	c-5.891,0-10.672,4.781-10.672,10.672v31.999H74.669c-5.891,0-10.671,4.766-10.671,10.656v42.67c0,5.89,4.78,10.671,10.671,10.671
	h31.999v74.654c0,5.891,4.781,10.671,10.672,10.671h42.655c5.906,0,10.671-4.78,10.671-10.671v-74.654h31.999
	c5.891,0,10.672-4.781,10.672-10.671v-42.67C213.337,154.073,208.555,149.307,202.665,149.307z"/>
<path style="fill:#ED5564;" d="M202.665,149.307h-31.999h-63.998H74.669c-5.891,0-10.671,4.766-10.671,10.656v42.67
	c0,5.89,4.78,10.671,10.671,10.671h31.999h63.998h31.999c5.891,0,10.672-4.781,10.672-10.671v-42.67
	C213.337,154.073,208.555,149.307,202.665,149.307z"/>
<path style="fill:#434A54;" d="M202.68,341.302c0,0,0,0-0.016,0H74.669c-3.688,0-7.125-1.922-9.077-5.062
	c-1.938-3.156-2.109-7.078-0.453-10.375l21.327-42.671c1.812-3.609,5.5-5.891,9.531-5.891h85.341c4.031,0,7.734,2.281,9.531,5.891
	l21.093,42.187c0.891,1.547,1.391,3.344,1.391,5.25C213.352,336.521,208.571,341.302,202.68,341.302z"/>
<path style="fill:#656D78;" d="M234.665,319.959H42.67c-5.891,0-10.671,4.781-10.671,10.672v42.67
	c0,5.891,4.78,10.656,10.671,10.656h191.995c5.89,0,10.671-4.766,10.671-10.656v-42.67
	C245.336,324.74,240.554,319.959,234.665,319.959z"/>
<path style="fill:#ED5564;" d="M373.332,138.636c-47.061,0-85.342,38.28-85.342,85.326v149.339c0,5.891,4.781,10.656,10.672,10.656
	h149.324c5.906,0,10.672-4.766,10.672-10.656V223.962C458.658,176.916,420.378,138.636,373.332,138.636z"/>
<path style="fill:#656D78;" d="M469.33,319.959H277.335c-5.891,0-10.671,4.781-10.671,10.672v42.67
	c0,5.891,4.78,10.656,10.671,10.656H469.33c5.89,0,10.655-4.766,10.655-10.656v-42.67C479.985,324.74,475.22,319.959,469.33,319.959
	z"/>
<g>
	<path style="fill:#F6BB42;" d="M31.999,426.565c-5.891,0-10.656-4.766-10.656-10.656V287.96c0-5.891,4.766-10.656,10.656-10.656
		c5.905,0,10.671,4.766,10.671,10.656v127.949C42.67,421.8,37.904,426.565,31.999,426.565z"/>
	<path style="fill:#F6BB42;" d="M479.985,426.565c-5.875,0-10.655-4.766-10.655-10.656V287.96c0-5.891,4.78-10.656,10.655-10.656
		c5.906,0,10.671,4.766,10.671,10.656v127.949C490.656,421.8,485.891,426.565,479.985,426.565z"/>
	<path style="fill:#F6BB42;" d="M85.341,426.675c-5.891,0-10.672-4.766-10.672-10.656v-64.061c0-5.891,4.781-10.656,10.672-10.656
		c5.891,0,10.656,4.766,10.656,10.656v64.061C95.997,421.909,91.231,426.675,85.341,426.675z"/>
	<path style="fill:#F6BB42;" d="M127.996,426.675c-5.875,0-10.656-4.766-10.656-10.656v-64.061c0-5.891,4.781-10.656,10.656-10.656
		c5.906,0,10.671,4.766,10.671,10.656v64.061C138.667,421.909,133.902,426.675,127.996,426.675z"/>
	<path style="fill:#F6BB42;" d="M170.666,426.675c-5.89,0-10.671-4.766-10.671-10.656v-64.061c0-5.891,4.781-10.656,10.671-10.656
		c5.891,0,10.672,4.766,10.672,10.656v64.061C181.338,421.909,176.556,426.675,170.666,426.675z"/>
	<path style="fill:#F6BB42;" d="M213.337,426.675c-5.891,0-10.672-4.766-10.672-10.656v-64.061c0-5.891,4.781-10.656,10.672-10.656
		s10.656,4.766,10.656,10.656v64.061C223.993,421.909,219.227,426.675,213.337,426.675z"/>
	<path style="fill:#F6BB42;" d="M255.992,426.675c-5.875,0-10.656-4.766-10.656-10.656v-64.061c0-5.891,4.781-10.656,10.656-10.656
		c5.906,0,10.672,4.766,10.672,10.656v64.061C266.664,421.909,261.898,426.675,255.992,426.675z"/>
	<path style="fill:#F6BB42;" d="M298.662,426.675c-5.891,0-10.672-4.766-10.672-10.656v-64.061c0-5.891,4.781-10.656,10.672-10.656
		s10.672,4.766,10.672,10.656v64.061C309.334,421.909,304.553,426.675,298.662,426.675z"/>
	<path style="fill:#F6BB42;" d="M341.333,426.675c-5.89,0-10.671-4.766-10.671-10.656v-64.061c0-5.891,4.781-10.656,10.671-10.656
		c5.891,0,10.656,4.766,10.656,10.656v64.061C351.989,421.909,347.223,426.675,341.333,426.675z"/>
	<path style="fill:#F6BB42;" d="M383.988,426.675c-5.875,0-10.656-4.766-10.656-10.656v-64.061c0-5.891,4.781-10.656,10.656-10.656
		c5.906,0,10.672,4.766,10.672,10.656v64.061C394.66,421.909,389.894,426.675,383.988,426.675z"/>
	<path style="fill:#F6BB42;" d="M426.658,426.675c-5.89,0-10.671-4.766-10.671-10.656v-64.061c0-5.891,4.781-10.656,10.671-10.656
		c5.891,0,10.672,4.766,10.672,10.656v64.061C437.33,421.909,432.549,426.675,426.658,426.675z"/>
</g>
<g>
	<path style="fill:#FFCE54;" d="M31.999,298.631C14.358,298.631,0,284.273,0,266.633c0-17.641,14.358-32,31.999-32
		c17.655,0,31.999,14.359,31.999,32C63.998,284.272,49.654,298.631,31.999,298.631z"/>
	<path style="fill:#FFCE54;" d="M479.985,298.631c-17.64,0-31.999-14.358-31.999-31.998c0-17.641,14.359-32,31.999-32
		c17.655,0,31.999,14.359,31.999,32C511.984,284.272,497.64,298.631,479.985,298.631z"/>
</g>
<g>
</g>
<g>
</g>
<g>
</g>
<g>
</g>
<g>
</g>
<g>
</g>
<g>
</g>
<g>
</g>
<g>
</g>
<g>
</g>
<g>
</g>
<g>
</g>
<g>
</g>
<g>
</g>
<g>
</g>
</svg>
