<?xml version="1.0"?>
<svg xmlns="http://www.w3.org/2000/svg" width="512" height="512" viewBox="0 0 512 512"><g><g><circle cx="256" cy="256" r="152" fill="#c6c5ca"/><path d="M48,496h0a24,24,0,0,1-24-24V288a24,24,0,0,1,24-24h0a24,24,0,0,1,24,24V472A24,24,0,0,1,48,496Z" fill="#806749"/><circle cx="256" cy="256" r="72" fill="#e0e0e2"/><path d="M464,496h0a24,24,0,0,1-24-24V288a24,24,0,0,1,24-24h0a24,24,0,0,1,24,24V472A24,24,0,0,1,464,496Z" fill="#806749"/><path d="M464.239,17.94,472,16V264h0a32,32,0,0,1-32-32V48.985A32,32,0,0,1,464.239,17.94Z" fill="#c6c5ca"/></g><g><path d="M80,8a8,8,0,0,0-8,8v88a16.021,16.021,0,0,1-16,16V16a8,8,0,0,0-16,0V120a16.021,16.021,0,0,1-16-16V16A8,8,0,0,0,8,16v88a32.036,32.036,0,0,0,32,32V257.01A32.058,32.058,0,0,0,16,288V472a32,32,0,0,0,64,0V288a32.058,32.058,0,0,0-24-30.99V136a32.036,32.036,0,0,0,32-32V16A8,8,0,0,0,80,8ZM64,288V472a16,16,0,0,1-32,0V288a16,16,0,0,1,32,0Z"/><path d="M256,96C167.78,96,96,167.78,96,256s71.78,160,160,160,160-71.78,160-160S344.22,96,256,96Zm0,304c-79.4,0-144-64.6-144-144s64.6-144,144-144,144,64.6,144,144S335.4,400,256,400Z"/><path d="M256,176a80,80,0,1,0,80,80A80.091,80.091,0,0,0,256,176Zm0,144a64,64,0,1,1,64-64A64.072,64.072,0,0,1,256,320Z"/><path d="M256,144a8,8,0,0,0,0-16A128.145,128.145,0,0,0,128,256a8,8,0,0,0,16,0A112.127,112.127,0,0,1,256,144Z"/><path d="M480,260.31V16a8,8,0,0,0-9.94-7.76l-7.76,1.94A39.944,39.944,0,0,0,432,48.98V232a39.9,39.9,0,0,0,13.49,29.92A32,32,0,0,0,432,288V472a32,32,0,0,0,64,0V288A31.989,31.989,0,0,0,480,260.31ZM448,48.98a23.946,23.946,0,0,1,16-22.62V254.63A24.044,24.044,0,0,1,448,232ZM480,472a16,16,0,0,1-32,0V288a16,16,0,0,1,32,0Z"/></g></g></svg>
